<svg width="1091" height="201" viewBox="0 0 1091 201" fill="none" xmlns="http://www.w3.org/2000/svg">
<g filter="url(#filter0_ii)">
<path d="M360.301 103.555V103.666C360.306 111.41 358.477 119.041 354.967 125.921C351.457 132.801 346.368 138.728 340.129 143.206L270.197 193.163C263.483 198.004 255.442 200.6 247.198 200.589C246.519 200.589 245.848 200.589 245.177 200.537C236.96 200.116 229.076 197.122 222.613 191.968C216.149 186.814 211.427 179.755 209.097 171.767C206.767 163.779 206.944 155.255 209.605 147.373C212.266 139.491 217.28 132.641 223.952 127.768C224.292 127.51 224.641 127.261 224.997 127.02L236.034 119.147L258.821 102.875L242.291 90.8934L228.172 80.6819L227.637 80.2951C224.786 78.1374 222.897 74.9212 222.388 71.3539C221.878 67.7866 222.79 64.1605 224.92 61.2733C227.052 58.3861 230.228 56.4743 233.751 55.9585C237.275 55.4426 240.857 56.365 243.708 58.5227L262.904 72.4388L282.015 86.2862L285.021 88.4609L290.327 92.303L291.524 93.1626L291.626 93.2485C293.018 94.4148 294.139 95.8777 294.907 97.5329C295.677 99.1881 296.076 100.995 296.076 102.824C296.076 104.653 295.677 106.46 294.907 108.115C294.139 109.77 293.018 111.233 291.626 112.399L290.081 113.5L281.744 119.508L270.639 127.433L270.316 127.665L240.601 148.887C239.94 149.273 239.315 149.719 238.733 150.219C236.209 152.371 234.576 155.405 234.16 158.72C233.745 162.035 234.577 165.386 236.491 168.108C238.406 170.829 241.262 172.721 244.492 173.407C247.722 174.094 251.089 173.524 253.922 171.811C254.522 171.455 255.09 171.047 255.62 170.591L285.411 149.317L289.597 146.326L325.127 120.943L325.263 120.849C325.645 120.599 326.018 120.333 326.375 120.058C328.781 118.276 330.761 115.971 332.17 113.311C333.578 110.652 334.38 107.706 334.516 104.692C334.651 101.677 334.117 98.6699 332.951 95.8921C331.787 93.1144 330.021 90.6366 327.784 88.6414C326.62 87.5779 325.341 86.6496 323.973 85.8736L292.186 62.8377L289.64 60.9811L252.878 34.335C252.41 33.974 251.926 33.6216 251.434 33.2864L251.375 33.2434C247.357 30.5057 242.773 28.7343 237.975 28.0649C233.177 27.3954 228.291 27.8454 223.691 29.3807C219.091 30.9159 214.9 33.4956 211.435 36.9227C207.971 40.3497 205.327 44.5333 203.704 49.1537C203.209 50.5557 202.815 51.992 202.523 53.4514L202.261 54.947C202.261 54.947 202.261 54.947 202.261 54.9986L195.342 94.0479L193.643 103.125L184.763 150.727L184.169 153.89C183.489 157.097 182.54 160.24 181.333 163.285C176.983 174.289 169.475 183.721 159.78 190.364C150.084 197.007 138.644 200.557 126.938 200.555C125.078 200.555 123.236 200.469 121.427 200.288C111.861 199.398 102.663 196.117 94.6588 190.739L91.2203 188.246L21.8063 137.988L18.9368 135.899C13.1484 131.385 8.45904 125.588 5.22857 118.953C1.9981 112.317 0.312527 105.021 0.301279 97.6236V97.5119C0.296467 89.7686 2.12572 82.1371 5.63562 75.2574C9.14552 68.3777 14.2337 62.4504 20.4735 57.9726L90.4052 8.01566C97.1201 3.17423 105.161 0.577765 113.404 0.589149C114.084 0.589149 114.754 0.589149 115.425 0.640722C123.642 1.06211 131.527 4.05654 137.99 9.2103C144.453 14.364 149.176 21.4227 151.506 29.4112C153.836 37.3996 153.658 45.9235 150.997 53.8052C148.336 61.6869 143.322 68.5373 136.65 73.4101C136.31 73.668 135.963 73.9173 135.606 74.1579L124.568 82.0314L101.791 98.3027L118.32 110.285L132.431 120.496C132.606 120.617 132.784 120.746 132.965 120.883C134.377 121.951 135.568 123.291 136.468 124.825C137.369 126.359 137.963 128.058 138.215 129.824C138.468 131.591 138.374 133.39 137.939 135.12C137.505 136.849 136.737 138.475 135.682 139.905C134.627 141.334 133.304 142.54 131.789 143.452C130.273 144.363 128.595 144.964 126.851 145.22C125.106 145.475 123.329 145.38 121.62 144.94C119.912 144.5 118.306 143.724 116.894 142.655L97.6982 128.739L78.5872 114.892L75.5818 112.76L70.2756 108.918L69.0785 108.059L68.9766 107.973C67.5847 106.806 66.4641 105.343 65.695 103.688C64.9258 102.033 64.5271 100.226 64.5271 98.3972C64.5271 96.568 64.9258 94.7614 65.695 93.1062C66.4641 91.451 67.5847 89.9881 68.9766 88.8219L70.5218 87.7216L78.8335 81.6704L89.9383 73.7454L90.2609 73.5133L119.975 52.291C120.637 51.9054 121.262 51.4595 121.843 50.9587C124.315 48.7941 125.899 45.775 126.289 42.4908C126.679 39.2066 125.846 35.8932 123.952 33.1976C122.059 30.5019 119.241 28.6176 116.048 27.9124C112.857 27.2072 109.519 27.7319 106.689 29.384C106.629 29.427 106.561 29.4528 106.511 29.4958L106.664 29.384C106.063 29.7404 105.495 30.1488 104.965 30.6046L105.135 30.4842L104.991 30.6046L75.1997 51.8612L71.0142 54.8525L35.4837 80.235L35.3479 80.3295C34.9658 80.5788 34.5923 80.8452 34.2356 81.1203C31.83 82.9021 29.8498 85.2077 28.441 87.8671C27.0323 90.5265 26.2307 93.472 26.0955 96.4867C25.9602 99.5013 26.4947 102.508 27.6597 105.286C28.8245 108.064 30.5901 110.542 32.8263 112.537L32.9452 112.64L32.8009 112.537C33.1149 112.829 33.4376 113.104 33.7772 113.396C34.6644 114.127 35.6133 114.777 36.6129 115.339L36.4855 115.244L36.6384 115.339L68.4248 138.375L70.9717 140.232L107.734 166.878C108.2 167.239 108.684 167.591 109.177 167.926L109.236 167.969C113.564 170.905 118.539 172.718 123.722 173.249C128.905 173.781 134.138 173.014 138.96 171.016C143.782 169.018 148.045 165.85 151.372 161.792C154.7 157.734 156.991 152.91 158.045 147.744L158.308 146.248C158.308 146.248 158.308 146.248 158.308 146.197L164.854 109.279L166.943 98.105L175.721 51.0103L176.511 46.8071C177.182 43.7781 178.093 40.8088 179.236 37.9279C183.587 26.9083 191.098 17.4613 200.804 10.8059C210.508 4.15043 221.96 0.591801 233.682 0.589149C235.541 0.589149 237.383 0.675104 239.192 0.855609C248.758 1.74574 257.956 5.02713 265.961 10.4052L269.357 12.8979L338.797 63.1901L341.666 65.2788C347.454 69.7932 352.144 75.5905 355.374 82.2256C358.604 88.8607 360.29 96.1571 360.301 103.555Z" fill="white"/>
</g>
<g filter="url(#filter1_ii)">
<path d="M454.617 157.589C485.845 157.589 507.601 135.093 507.601 103.125C507.601 70.5651 485.253 48.0691 453.137 48.0691H411.697V157.589H454.617ZM450.769 70.2691C470.601 70.2691 482.293 82.4051 482.293 103.125C482.293 123.401 471.193 135.389 452.249 135.389H435.673V70.2691H450.769ZM518.219 79.8891C518.219 97.7971 528.283 108.897 547.819 112.893L564.543 116.297C571.795 117.777 574.607 120.885 574.607 126.953C574.607 133.909 567.799 138.201 556.995 138.201C546.339 138.201 540.419 133.761 540.419 125.769H516.591C516.591 146.341 532.427 159.513 556.847 159.513C582.007 159.513 598.583 145.749 598.583 124.585C598.583 107.269 589.259 97.9451 569.723 93.9491L553.295 90.5451C545.599 88.9171 542.195 85.6611 542.195 79.0011C542.195 71.7491 548.411 67.3091 558.179 67.3091C567.207 67.3091 572.979 72.0451 572.979 79.7411H596.807C596.807 59.0211 582.007 45.9971 558.475 45.9971C534.943 45.9971 518.219 60.0571 518.219 79.8891ZM661.835 159.365C689.215 159.365 709.639 143.233 713.487 118.813H688.623C685.663 129.617 675.747 136.277 662.279 136.277C644.667 136.277 633.715 123.401 633.715 102.829C633.715 81.9611 644.519 69.3811 662.279 69.3811C675.451 69.3811 684.775 75.5971 688.031 86.5491H713.339C709.935 61.9811 690.251 46.2931 662.871 46.2931C630.163 46.2931 608.407 68.7891 608.407 102.977C608.407 137.609 628.979 159.365 661.835 159.365ZM792.665 48.0691H768.689V157.589H792.665V136.573L808.945 115.261L833.069 157.589H860.745L824.633 94.8371L860.449 48.0691H832.181L792.665 100.461V48.0691ZM897.595 48.0691H873.619V157.589H897.595V48.0691ZM990.007 157.589V135.389H944.423V112.745H984.827V91.7291H944.423V70.2691H990.007V48.0691H920.447V157.589H990.007ZM1001.19 70.2691H1032.27V157.589H1056.24V70.2691H1087.32V48.0691H1001.19V70.2691Z" fill="white"/>
</g>
<defs>
<filter id="filter0_ii" x="-3.69873" y="-3.41089" width="368" height="208" filterUnits="userSpaceOnUse" color-interpolation-filters="sRGB">
<feFlood flood-opacity="0" result="BackgroundImageFix"/>
<feBlend mode="normal" in="SourceGraphic" in2="BackgroundImageFix" result="shape"/>
<feColorMatrix in="SourceAlpha" type="matrix" values="0 0 0 0 0 0 0 0 0 0 0 0 0 0 0 0 0 0 127 0" result="hardAlpha"/>
<feOffset dx="4" dy="-4"/>
<feGaussianBlur stdDeviation="2"/>
<feComposite in2="hardAlpha" operator="arithmetic" k2="-1" k3="1"/>
<feColorMatrix type="matrix" values="0 0 0 0 0 0 0 0 0 0 0 0 0 0 0 0 0 0 0.2 0"/>
<feBlend mode="normal" in2="shape" result="effect1_innerShadow"/>
<feColorMatrix in="SourceAlpha" type="matrix" values="0 0 0 0 0 0 0 0 0 0 0 0 0 0 0 0 0 0 127 0" result="hardAlpha"/>
<feOffset dx="-4" dy="4"/>
<feGaussianBlur stdDeviation="2"/>
<feComposite in2="hardAlpha" operator="arithmetic" k2="-1" k3="1"/>
<feColorMatrix type="matrix" values="0 0 0 0 1 0 0 0 0 1 0 0 0 0 1 0 0 0 0.2 0"/>
<feBlend mode="normal" in2="effect1_innerShadow" result="effect2_innerShadow"/>
</filter>
<filter id="filter1_ii" x="407.697" y="41.9971" width="683.626" height="121.516" filterUnits="userSpaceOnUse" color-interpolation-filters="sRGB">
<feFlood flood-opacity="0" result="BackgroundImageFix"/>
<feBlend mode="normal" in="SourceGraphic" in2="BackgroundImageFix" result="shape"/>
<feColorMatrix in="SourceAlpha" type="matrix" values="0 0 0 0 0 0 0 0 0 0 0 0 0 0 0 0 0 0 127 0" result="hardAlpha"/>
<feOffset dx="4" dy="-4"/>
<feGaussianBlur stdDeviation="2"/>
<feComposite in2="hardAlpha" operator="arithmetic" k2="-1" k3="1"/>
<feColorMatrix type="matrix" values="0 0 0 0 0 0 0 0 0 0 0 0 0 0 0 0 0 0 0.16 0"/>
<feBlend mode="normal" in2="shape" result="effect1_innerShadow"/>
<feColorMatrix in="SourceAlpha" type="matrix" values="0 0 0 0 0 0 0 0 0 0 0 0 0 0 0 0 0 0 127 0" result="hardAlpha"/>
<feOffset dx="-4" dy="4"/>
<feGaussianBlur stdDeviation="2"/>
<feComposite in2="hardAlpha" operator="arithmetic" k2="-1" k3="1"/>
<feColorMatrix type="matrix" values="0 0 0 0 1 0 0 0 0 1 0 0 0 0 1 0 0 0 0.2 0"/>
<feBlend mode="normal" in2="effect1_innerShadow" result="effect2_innerShadow"/>
</filter>
</defs>
</svg>
