<svg width="329" height="56" viewBox="0 0 329 56" fill="none" xmlns="http://www.w3.org/2000/svg">
<path d="M42.5797 37.2832L13.0008 20.206C11.0662 19.0891 8.76724 18.7864 6.60953 19.3646C4.45181 19.9427 2.61214 21.3543 1.49522 23.2889C0.378295 25.2234 0.0756217 27.5224 0.653768 29.6801C1.23191 31.8379 2.64353 33.6775 4.57807 34.7944L34.157 51.8716C35.1149 52.4246 36.1724 52.7836 37.269 52.9279C38.3656 53.0723 39.4799 52.9993 40.5483 52.713C41.6167 52.4267 42.6182 51.9328 43.4957 51.2595C44.3732 50.5862 45.1095 49.7466 45.6626 48.7887C46.2156 47.8308 46.5745 46.7734 46.7189 45.6767C46.8633 44.5801 46.7902 43.4658 46.504 42.3974C46.2177 41.3291 45.7238 40.3275 45.0505 39.45C44.3771 38.5725 43.5375 37.8362 42.5797 37.2832V37.2832Z" fill="white"/>
<path d="M101.566 20.206L71.9871 3.12842C71.0292 2.57538 69.9717 2.21643 68.8751 2.07206C67.7785 1.92769 66.6642 2.00072 65.5958 2.28699C64.5274 2.57327 63.5259 3.06717 62.6484 3.74051C61.7709 4.41384 61.0346 5.25342 60.4816 6.21131C59.9285 7.1692 59.5696 8.22664 59.4252 9.32325C59.2808 10.4199 59.3539 11.5342 59.6401 12.6026C59.9264 13.6709 60.4203 14.6725 61.0937 15.55C61.767 16.4275 62.6066 17.1638 63.5645 17.7168L93.1431 34.7944C94.101 35.3475 95.1584 35.7064 96.255 35.8508C97.3516 35.9951 98.4659 35.9221 99.5343 35.6358C100.603 35.3496 101.604 34.8557 102.482 34.1823C103.359 33.509 104.096 32.6694 104.649 31.7115C105.202 30.7536 105.561 29.6962 105.705 28.5996C105.849 27.503 105.776 26.3887 105.49 25.3203C105.204 24.2519 104.71 23.2503 104.036 22.3728C103.363 21.4953 102.524 20.759 101.566 20.206V20.206Z" fill="white"/>
<path d="M91.9718 36.8232L78.1667 28.8526L63.5645 37.2832C61.6299 38.4001 60.2183 40.2398 59.6402 42.3975C59.062 44.5552 59.3647 46.8542 60.4816 48.7887C61.5985 50.7232 63.4382 52.1349 65.5959 52.713C67.7536 53.2912 70.0526 52.9885 71.9871 51.8716L95.7637 38.1443C94.4282 37.9451 93.142 37.497 91.9718 36.8232V36.8232Z" fill="white"/>
<path d="M14.172 18.1774L27.9772 26.1477L42.5797 17.7168C44.5142 16.5999 45.9258 14.7603 46.504 12.6026C47.0821 10.4449 46.7795 8.14588 45.6626 6.21133C44.5457 4.27679 42.706 2.86517 40.5483 2.28702C38.3906 1.70886 36.0916 2.01153 34.157 3.12844L10.3807 16.8559C11.7161 17.055 13.0022 17.5033 14.172 18.1774V18.1774Z" fill="white"/>
<path d="M126.047 44V9.875H136.547C139.547 9.875 142.227 10.5547 144.586 11.9141C146.961 13.2578 148.812 15.1797 150.141 17.6797C151.469 20.1641 152.133 22.9922 152.133 26.1641V27.7344C152.133 30.9062 151.477 33.7266 150.164 36.1953C148.867 38.6641 147.031 40.5781 144.656 41.9375C142.281 43.2969 139.602 43.9844 136.617 44H126.047ZM133.078 15.5703V38.3516H136.477C139.227 38.3516 141.328 37.4531 142.781 35.6562C144.234 33.8594 144.977 31.2891 145.008 27.9453V26.1406C145.008 22.6719 144.289 20.0469 142.852 18.2656C141.414 16.4688 139.312 15.5703 136.547 15.5703H133.078ZM174.961 35.0469C174.961 33.7188 174.492 32.7031 173.555 32C172.617 31.2812 170.93 30.5312 168.492 29.75C166.055 28.9531 164.125 28.1719 162.703 27.4062C158.828 25.3125 156.891 22.4922 156.891 18.9453C156.891 17.1016 157.406 15.4609 158.438 14.0234C159.484 12.5703 160.977 11.4375 162.914 10.625C164.867 9.8125 167.055 9.40625 169.477 9.40625C171.914 9.40625 174.086 9.85156 175.992 10.7422C177.898 11.6172 179.375 12.8594 180.422 14.4688C181.484 16.0781 182.016 17.9062 182.016 19.9531H174.984C174.984 18.3906 174.492 17.1797 173.508 16.3203C172.523 15.4453 171.141 15.0078 169.359 15.0078C167.641 15.0078 166.305 15.375 165.352 16.1094C164.398 16.8281 163.922 17.7812 163.922 18.9688C163.922 20.0781 164.477 21.0078 165.586 21.7578C166.711 22.5078 168.359 23.2109 170.531 23.8672C174.531 25.0703 177.445 26.5625 179.273 28.3438C181.102 30.125 182.016 32.3438 182.016 35C182.016 37.9531 180.898 40.2734 178.664 41.9609C176.43 43.6328 173.422 44.4688 169.641 44.4688C167.016 44.4688 164.625 43.9922 162.469 43.0391C160.312 42.0703 158.664 40.75 157.523 39.0781C156.398 37.4062 155.836 35.4688 155.836 33.2656H162.891C162.891 37.0312 165.141 38.9141 169.641 38.9141C171.312 38.9141 172.617 38.5781 173.555 37.9062C174.492 37.2188 174.961 36.2656 174.961 35.0469ZM213.586 32.6328C213.32 36.3047 211.961 39.1953 209.508 41.3047C207.07 43.4141 203.852 44.4688 199.852 44.4688C195.477 44.4688 192.031 43 189.516 40.0625C187.016 37.1094 185.766 33.0625 185.766 27.9219V25.8359C185.766 22.5547 186.344 19.6641 187.5 17.1641C188.656 14.6641 190.305 12.75 192.445 11.4219C194.602 10.0781 197.102 9.40625 199.945 9.40625C203.883 9.40625 207.055 10.4609 209.461 12.5703C211.867 14.6797 213.258 17.6406 213.633 21.4531H206.602C206.43 19.25 205.812 17.6562 204.75 16.6719C203.703 15.6719 202.102 15.1719 199.945 15.1719C197.602 15.1719 195.844 16.0156 194.672 17.7031C193.516 19.375 192.922 21.9766 192.891 25.5078V28.0859C192.891 31.7734 193.445 34.4688 194.555 36.1719C195.68 37.875 197.445 38.7266 199.852 38.7266C202.023 38.7266 203.641 38.2344 204.703 37.25C205.781 36.25 206.398 34.7109 206.555 32.6328H213.586ZM240.844 30.3125L237.188 34.25V44H230.156V9.875H237.188V25.3438L240.281 21.1016L248.977 9.875H257.625L245.508 25.0391L257.977 44H249.609L240.844 30.3125ZM268.102 44H261.07V9.875H268.102V44ZM295.172 29.2109H281.672V38.3516H297.516V44H274.641V9.875H297.469V15.5703H281.672V23.7031H295.172V29.2109ZM327.797 15.5703H317.344V44H310.312V15.5703H300V9.875H327.797V15.5703Z" fill="white"/>
</svg>
