<svg width="1091" height="201" viewBox="0 0 1091 201" fill="none" xmlns="http://www.w3.org/2000/svg">
<g filter="url(#filter0_ii)">
<path d="M360.301 103.211V103.322C360.306 111.066 358.477 118.697 354.967 125.577C351.457 132.457 346.368 138.384 340.129 142.862L270.197 192.819C263.483 197.66 255.442 200.256 247.198 200.245C246.519 200.245 245.848 200.245 245.177 200.193C236.96 199.772 229.076 196.778 222.613 191.624C216.149 186.47 211.427 179.411 209.097 171.423C206.767 163.435 206.944 154.911 209.605 147.029C212.266 139.147 217.28 132.297 223.952 127.424C224.292 127.166 224.641 126.917 224.997 126.676L236.034 118.803L258.821 102.531L242.291 90.5492L228.172 80.3377L227.637 79.9509C224.786 77.7932 222.897 74.577 222.388 71.0097C221.878 67.4424 222.79 63.8163 224.92 60.9291C227.052 58.0419 230.228 56.1301 233.751 55.6143C237.275 55.0984 240.857 56.0208 243.708 58.1785L262.904 72.0946L282.015 85.942L285.021 88.1167L290.327 91.9588L291.524 92.8184L291.626 92.9043C293.018 94.0706 294.139 95.5335 294.907 97.1887C295.677 98.8439 296.076 100.651 296.076 102.48C296.076 104.309 295.677 106.116 294.907 107.771C294.139 109.426 293.018 110.889 291.626 112.055L290.081 113.156L281.744 119.164L270.639 127.089L270.316 127.321L240.601 148.543C239.94 148.929 239.315 149.375 238.733 149.875C236.209 152.027 234.576 155.061 234.16 158.376C233.745 161.691 234.577 165.042 236.491 167.764C238.406 170.485 241.262 172.377 244.492 173.063C247.722 173.75 251.089 173.18 253.922 171.467C254.522 171.111 255.09 170.703 255.62 170.247L285.411 148.973L289.597 145.982L325.127 120.599L325.263 120.505C325.645 120.255 326.018 119.989 326.375 119.714C328.781 117.932 330.761 115.627 332.17 112.967C333.578 110.308 334.38 107.362 334.516 104.348C334.651 101.333 334.117 98.3257 332.951 95.5479C331.787 92.7702 330.021 90.2924 327.784 88.2972C326.62 87.2337 325.341 86.3054 323.973 85.5294L292.186 62.4935L289.64 60.6369L252.878 33.9908C252.41 33.6298 251.926 33.2774 251.434 32.9422L251.375 32.8992C247.357 30.1615 242.773 28.3901 237.975 27.7207C233.177 27.0512 228.291 27.5012 223.691 29.0365C219.091 30.5717 214.9 33.1514 211.435 36.5785C207.971 40.0055 205.327 44.1891 203.704 48.8095C203.209 50.2115 202.815 51.6478 202.523 53.1072L202.261 54.6028C202.261 54.6028 202.261 54.6028 202.261 54.6544L195.342 93.7037L193.643 102.781L184.763 150.383L184.169 153.546C183.489 156.753 182.54 159.896 181.333 162.941C176.983 173.945 169.475 183.377 159.78 190.02C150.084 196.663 138.644 200.213 126.938 200.211C125.078 200.211 123.236 200.125 121.427 199.944C111.861 199.054 102.663 195.773 94.6588 190.395L91.2203 187.902L21.8063 137.644L18.9368 135.555C13.1484 131.041 8.45904 125.244 5.22857 118.609C1.9981 111.973 0.312527 104.677 0.301279 97.2794V97.1677C0.296467 89.4244 2.12572 81.7929 5.63562 74.9132C9.14552 68.0335 14.2337 62.1062 20.4735 57.6284L90.4052 7.67145C97.1201 2.83002 105.161 0.233563 113.404 0.244947C114.084 0.244947 114.754 0.244947 115.425 0.29652C123.642 0.717912 131.527 3.71233 137.99 8.86609C144.453 14.0198 149.176 21.0785 151.506 29.067C153.836 37.0554 153.658 45.5793 150.997 53.461C148.336 61.3427 143.322 68.1931 136.65 73.0659C136.31 73.3238 135.963 73.5731 135.606 73.8137L124.568 81.6872L101.791 97.9585L118.32 109.941L132.431 120.152C132.606 120.273 132.784 120.402 132.965 120.539C134.377 121.607 135.568 122.947 136.468 124.481C137.369 126.015 137.963 127.714 138.215 129.48C138.468 131.247 138.374 133.046 137.939 134.776C137.505 136.505 136.737 138.131 135.682 139.561C134.627 140.99 133.304 142.196 131.789 143.108C130.273 144.019 128.595 144.62 126.851 144.876C125.106 145.131 123.329 145.036 121.62 144.596C119.912 144.156 118.306 143.38 116.894 142.311L97.6982 128.395L78.5872 114.548L75.5818 112.416L70.2756 108.574L69.0785 107.715L68.9766 107.629C67.5847 106.462 66.4641 104.999 65.695 103.344C64.9258 101.689 64.5271 99.8818 64.5271 98.053C64.5271 96.2238 64.9258 94.4172 65.695 92.762C66.4641 91.1068 67.5847 89.6439 68.9766 88.4777L70.5218 87.3774L78.8335 81.3262L89.9383 73.4012L90.2609 73.1691L119.975 51.9468C120.637 51.5612 121.262 51.1153 121.843 50.6145C124.315 48.4499 125.899 45.4308 126.289 42.1466C126.679 38.8624 125.846 35.549 123.952 32.8534C122.059 30.1577 119.241 28.2734 116.048 27.5682C112.857 26.863 109.519 27.3877 106.689 29.0398C106.629 29.0828 106.561 29.1086 106.511 29.1516L106.664 29.0398C106.063 29.3962 105.495 29.8046 104.965 30.2604L105.135 30.14L104.991 30.2604L75.1997 51.517L71.0142 54.5083L35.4837 79.8908L35.3479 79.9853C34.9658 80.2346 34.5923 80.501 34.2356 80.7761C31.83 82.5579 29.8498 84.8635 28.441 87.5229C27.0323 90.1823 26.2307 93.1278 26.0955 96.1425C25.9602 99.1571 26.4947 102.164 27.6597 104.942C28.8245 107.72 30.5901 110.198 32.8263 112.193L32.9452 112.296L32.8009 112.193C33.115 112.485 33.4376 112.76 33.7772 113.052C34.6644 113.783 35.6133 114.433 36.6129 114.995L36.4855 114.9L36.6384 114.995L68.4248 138.031L70.9717 139.888L107.734 166.534C108.2 166.895 108.684 167.247 109.177 167.582L109.236 167.625C113.564 170.561 118.539 172.374 123.722 172.905C128.905 173.437 134.138 172.67 138.96 170.672C143.782 168.674 148.045 165.506 151.372 161.448C154.7 157.39 156.991 152.566 158.045 147.4L158.308 145.904C158.308 145.904 158.308 145.904 158.308 145.853L164.854 108.935L166.943 97.7608L175.721 50.6661L176.511 46.4629C177.182 43.4339 178.093 40.4646 179.236 37.5837C183.587 26.5641 191.098 17.1171 200.804 10.4617C210.508 3.80622 221.96 0.247599 233.682 0.244947C235.541 0.244947 237.383 0.330902 239.192 0.511407C248.758 1.40153 257.956 4.68292 265.961 10.061L269.357 12.5537L338.797 62.8459L341.666 64.9346C347.454 69.449 352.144 75.2463 355.374 81.8814C358.604 88.5165 360.29 95.8129 360.301 103.211Z" fill="#0850FD"/>
</g>
<g filter="url(#filter1_ii)">
<path d="M454.617 157.245C485.845 157.245 507.601 134.749 507.601 102.781C507.601 70.2209 485.253 47.7249 453.137 47.7249H411.697V157.245H454.617ZM450.769 69.9249C470.601 69.9249 482.293 82.0609 482.293 102.781C482.293 123.057 471.193 135.045 452.249 135.045H435.673V69.9249H450.769ZM518.219 79.5449C518.219 97.4529 528.283 108.553 547.819 112.549L564.543 115.953C571.795 117.433 574.607 120.541 574.607 126.609C574.607 133.565 567.799 137.857 556.995 137.857C546.339 137.857 540.419 133.417 540.419 125.425H516.591C516.591 145.997 532.427 159.169 556.847 159.169C582.007 159.169 598.583 145.405 598.583 124.241C598.583 106.925 589.259 97.6009 569.723 93.6049L553.295 90.2009C545.599 88.5729 542.195 85.3169 542.195 78.6569C542.195 71.4049 548.411 66.9649 558.179 66.9649C567.207 66.9649 572.979 71.7009 572.979 79.3969H596.807C596.807 58.6769 582.007 45.6529 558.475 45.6529C534.943 45.6529 518.219 59.7129 518.219 79.5449ZM661.835 159.021C689.215 159.021 709.639 142.889 713.487 118.469H688.623C685.663 129.273 675.747 135.933 662.279 135.933C644.667 135.933 633.715 123.057 633.715 102.485C633.715 81.6169 644.519 69.0369 662.279 69.0369C675.451 69.0369 684.775 75.2529 688.031 86.2049H713.339C709.935 61.6369 690.251 45.9489 662.871 45.9489C630.163 45.9489 608.407 68.4449 608.407 102.633C608.407 137.265 628.979 159.021 661.835 159.021ZM792.665 47.7249H768.689V157.245H792.665V136.229L808.945 114.917L833.069 157.245H860.745L824.633 94.4929L860.449 47.7249H832.181L792.665 100.117V47.7249ZM897.595 47.7249H873.619V157.245H897.595V47.7249ZM990.007 157.245V135.045H944.423V112.401H984.827V91.3849H944.423V69.9249H990.007V47.7249H920.447V157.245H990.007ZM1001.19 69.9249H1032.27V157.245H1056.24V69.9249H1087.32V47.7249H1001.19V69.9249Z" fill="#1F2937"/>
</g>
<defs>
<filter id="filter0_ii" x="-3.69873" y="-3.75509" width="368" height="208" filterUnits="userSpaceOnUse" color-interpolation-filters="sRGB">
<feFlood flood-opacity="0" result="BackgroundImageFix"/>
<feBlend mode="normal" in="SourceGraphic" in2="BackgroundImageFix" result="shape"/>
<feColorMatrix in="SourceAlpha" type="matrix" values="0 0 0 0 0 0 0 0 0 0 0 0 0 0 0 0 0 0 127 0" result="hardAlpha"/>
<feOffset dx="4" dy="-4"/>
<feGaussianBlur stdDeviation="2"/>
<feComposite in2="hardAlpha" operator="arithmetic" k2="-1" k3="1"/>
<feColorMatrix type="matrix" values="0 0 0 0 0 0 0 0 0 0 0 0 0 0 0 0 0 0 0.2 0"/>
<feBlend mode="normal" in2="shape" result="effect1_innerShadow"/>
<feColorMatrix in="SourceAlpha" type="matrix" values="0 0 0 0 0 0 0 0 0 0 0 0 0 0 0 0 0 0 127 0" result="hardAlpha"/>
<feOffset dx="-4" dy="4"/>
<feGaussianBlur stdDeviation="2"/>
<feComposite in2="hardAlpha" operator="arithmetic" k2="-1" k3="1"/>
<feColorMatrix type="matrix" values="0 0 0 0 1 0 0 0 0 1 0 0 0 0 1 0 0 0 0.2 0"/>
<feBlend mode="normal" in2="effect1_innerShadow" result="effect2_innerShadow"/>
</filter>
<filter id="filter1_ii" x="407.697" y="41.6529" width="683.626" height="121.516" filterUnits="userSpaceOnUse" color-interpolation-filters="sRGB">
<feFlood flood-opacity="0" result="BackgroundImageFix"/>
<feBlend mode="normal" in="SourceGraphic" in2="BackgroundImageFix" result="shape"/>
<feColorMatrix in="SourceAlpha" type="matrix" values="0 0 0 0 0 0 0 0 0 0 0 0 0 0 0 0 0 0 127 0" result="hardAlpha"/>
<feOffset dx="-4" dy="4"/>
<feGaussianBlur stdDeviation="2"/>
<feComposite in2="hardAlpha" operator="arithmetic" k2="-1" k3="1"/>
<feColorMatrix type="matrix" values="0 0 0 0 0.658333 0 0 0 0 0.658333 0 0 0 0 0.658333 0 0 0 0.2 0"/>
<feBlend mode="normal" in2="shape" result="effect1_innerShadow"/>
<feColorMatrix in="SourceAlpha" type="matrix" values="0 0 0 0 0 0 0 0 0 0 0 0 0 0 0 0 0 0 127 0" result="hardAlpha"/>
<feOffset dx="4" dy="-4"/>
<feGaussianBlur stdDeviation="2"/>
<feComposite in2="hardAlpha" operator="arithmetic" k2="-1" k3="1"/>
<feColorMatrix type="matrix" values="0 0 0 0 0 0 0 0 0 0 0 0 0 0 0 0 0 0 0.4 0"/>
<feBlend mode="normal" in2="effect1_innerShadow" result="effect2_innerShadow"/>
</filter>
</defs>
</svg>
