<svg width="106" height="51" viewBox="0 0 106 51" fill="none" xmlns="http://www.w3.org/2000/svg">
<path d="M42.2129 35.2832L12.634 18.206C10.6995 17.0891 8.40048 16.7864 6.24277 17.3646C4.08505 17.9427 2.24538 19.3543 1.12846 21.2889C0.011535 23.2234 -0.291139 25.5224 0.287008 27.6801C0.865154 29.8379 2.27677 31.6775 4.21131 32.7944L33.7903 49.8716C34.7482 50.4246 35.8056 50.7836 36.9022 50.9279C37.9988 51.0723 39.1131 50.9993 40.1815 50.713C41.2499 50.4267 42.2514 49.9328 43.129 49.2595C44.0065 48.5862 44.7428 47.7466 45.2958 46.7887C45.8488 45.8308 46.2078 44.7734 46.3521 43.6767C46.4965 42.5801 46.4235 41.4658 46.1372 40.3974C45.8509 39.3291 45.357 38.3275 44.6837 37.45C44.0104 36.5725 43.1708 35.8362 42.2129 35.2832Z" fill="#AEB1B5"/>
<path d="M101.199 18.206L71.6203 1.12842C70.6624 0.575381 69.6049 0.216429 68.5083 0.072057C67.4117 -0.0723147 66.2974 0.000721154 65.229 0.286994C64.1606 0.573267 63.1591 1.06717 62.2816 1.74051C61.4041 2.41384 60.6678 3.25342 60.1147 4.21131C59.5617 5.1692 59.2028 6.22664 59.0584 7.32325C58.914 8.41986 58.987 9.53417 59.2733 10.6026C59.5596 11.6709 60.0535 12.6725 60.7268 13.55C61.4002 14.4275 62.2397 15.1638 63.1976 15.7168L92.7762 32.7944C93.7341 33.3475 94.7916 33.7064 95.8882 33.8508C96.9848 33.9951 98.0991 33.9221 99.1675 33.6358C100.236 33.3496 101.237 32.8557 102.115 32.1823C102.992 31.509 103.729 30.6694 104.282 29.7115C104.835 28.7536 105.194 27.6962 105.338 26.5996C105.482 25.503 105.409 24.3887 105.123 23.3203C104.837 22.2519 104.343 21.2503 103.67 20.3728C102.996 19.4953 102.157 18.759 101.199 18.206Z" fill="#AEB1B5"/>
<path d="M91.605 34.8232L77.7999 26.8526L63.1977 35.2832C61.2631 36.4001 59.8515 38.2398 59.2733 40.3975C58.6952 42.5552 58.9979 44.8542 60.1148 46.7887C61.2317 48.7232 63.0713 50.1349 65.229 50.713C67.3867 51.2912 69.6857 50.9885 71.6203 49.8716L95.3969 36.1443C94.0614 35.9451 92.7752 35.497 91.605 34.8232Z" fill="#AEB1B5"/>
<path d="M13.8052 16.1774L27.6104 24.1477L42.2128 15.7168C44.1474 14.5999 45.559 12.7603 46.1372 10.6026C46.7153 8.44488 46.4127 6.14588 45.2957 4.21133C44.1788 2.27679 42.3392 0.86517 40.1815 0.287015C38.0238 -0.291139 35.7248 0.0115297 33.7902 1.12844L10.0139 14.8559C11.3493 15.055 12.6354 15.5033 13.8052 16.1774Z" fill="#AEB1B5"/>
</svg>
