<svg width="329" height="56" viewBox="0 0 329 56" fill="none" xmlns="http://www.w3.org/2000/svg">
<path d="M25.236 27.7432L42.4496 17.8047C44.395 16.6816 45.8145 14.8316 46.3959 12.6619C46.9772 10.4921 46.6729 8.18025 45.5497 6.23489C44.4266 4.28952 42.5766 2.87001 40.4069 2.28862C38.2371 1.70723 35.9252 2.01159 33.9799 3.13475L4.23547 20.3078L25.236 27.7432Z" fill="#EA4335"/>
<path d="M38.2066 53.2868C40.0718 53.2882 41.8852 52.6739 43.3656 51.5394C44.8461 50.4048 45.9106 48.8134 46.3942 47.012C46.8777 45.2106 46.7532 43.3 46.04 41.5765C45.3267 39.8531 44.0646 38.4133 42.4495 37.4805L12.7046 20.3078C10.7593 19.1847 8.44741 18.8803 6.27763 19.4617C4.10785 20.0431 2.25789 21.4626 1.13474 23.408C0.0115836 25.3534 -0.292768 27.6653 0.288629 29.835C0.870026 32.0048 2.28955 33.8548 4.23492 34.9779L33.9793 52.1505C35.2637 52.8949 36.722 53.2869 38.2066 53.2868V53.2868Z" fill="#4285F4"/>
<path d="M67.7945 53.2868C69.279 53.2869 70.7371 52.8949 72.0214 52.1505L101.765 34.978L81.032 27.3883L63.5517 37.4805C61.9365 38.4133 60.6743 39.8531 59.961 41.5765C59.2477 43.3 59.1232 45.2106 59.6068 47.012C60.0903 48.8135 61.1549 50.4049 62.6354 51.5395C64.1158 52.674 65.9293 53.2883 67.7945 53.2868V53.2868Z" fill="#FBBC04"/>
<path d="M97.5226 36.1142C99.3878 36.1157 101.201 35.5015 102.682 34.3669C104.162 33.2324 105.227 31.6409 105.71 29.8395C106.194 28.038 106.069 26.1274 105.356 24.404C104.643 22.6805 103.381 21.2407 101.765 20.3079L72.0214 3.13485C71.0581 2.57872 69.9948 2.21776 68.892 2.07258C67.7893 1.9274 66.6687 2.00085 65.5944 2.28872C64.52 2.5766 63.5129 3.07326 62.6305 3.75036C61.748 4.42746 61.0076 5.27174 60.4515 6.23499C59.8954 7.19823 59.5344 8.26158 59.3892 9.36433C59.2441 10.4671 59.3175 11.5876 59.6054 12.662C59.8932 13.7363 60.3899 14.7435 61.067 15.6259C61.7441 16.5083 62.5884 17.2487 63.5516 17.8048L93.2957 34.978C94.5801 35.7221 96.0382 36.114 97.5226 36.1142V36.1142Z" fill="#0F9D58"/>
<path d="M126.047 44V9.875H136.547C139.547 9.875 142.227 10.5547 144.586 11.9141C146.961 13.2578 148.812 15.1797 150.141 17.6797C151.469 20.1641 152.133 22.9922 152.133 26.1641V27.7344C152.133 30.9062 151.477 33.7266 150.164 36.1953C148.867 38.6641 147.031 40.5781 144.656 41.9375C142.281 43.2969 139.602 43.9844 136.617 44H126.047ZM133.078 15.5703V38.3516H136.477C139.227 38.3516 141.328 37.4531 142.781 35.6562C144.234 33.8594 144.977 31.2891 145.008 27.9453V26.1406C145.008 22.6719 144.289 20.0469 142.852 18.2656C141.414 16.4688 139.312 15.5703 136.547 15.5703H133.078ZM174.961 35.0469C174.961 33.7188 174.492 32.7031 173.555 32C172.617 31.2812 170.93 30.5312 168.492 29.75C166.055 28.9531 164.125 28.1719 162.703 27.4062C158.828 25.3125 156.891 22.4922 156.891 18.9453C156.891 17.1016 157.406 15.4609 158.438 14.0234C159.484 12.5703 160.977 11.4375 162.914 10.625C164.867 9.8125 167.055 9.40625 169.477 9.40625C171.914 9.40625 174.086 9.85156 175.992 10.7422C177.898 11.6172 179.375 12.8594 180.422 14.4688C181.484 16.0781 182.016 17.9062 182.016 19.9531H174.984C174.984 18.3906 174.492 17.1797 173.508 16.3203C172.523 15.4453 171.141 15.0078 169.359 15.0078C167.641 15.0078 166.305 15.375 165.352 16.1094C164.398 16.8281 163.922 17.7812 163.922 18.9688C163.922 20.0781 164.477 21.0078 165.586 21.7578C166.711 22.5078 168.359 23.2109 170.531 23.8672C174.531 25.0703 177.445 26.5625 179.273 28.3438C181.102 30.125 182.016 32.3438 182.016 35C182.016 37.9531 180.898 40.2734 178.664 41.9609C176.43 43.6328 173.422 44.4688 169.641 44.4688C167.016 44.4688 164.625 43.9922 162.469 43.0391C160.312 42.0703 158.664 40.75 157.523 39.0781C156.398 37.4062 155.836 35.4688 155.836 33.2656H162.891C162.891 37.0312 165.141 38.9141 169.641 38.9141C171.312 38.9141 172.617 38.5781 173.555 37.9062C174.492 37.2188 174.961 36.2656 174.961 35.0469ZM213.586 32.6328C213.32 36.3047 211.961 39.1953 209.508 41.3047C207.07 43.4141 203.852 44.4688 199.852 44.4688C195.477 44.4688 192.031 43 189.516 40.0625C187.016 37.1094 185.766 33.0625 185.766 27.9219V25.8359C185.766 22.5547 186.344 19.6641 187.5 17.1641C188.656 14.6641 190.305 12.75 192.445 11.4219C194.602 10.0781 197.102 9.40625 199.945 9.40625C203.883 9.40625 207.055 10.4609 209.461 12.5703C211.867 14.6797 213.258 17.6406 213.633 21.4531H206.602C206.43 19.25 205.812 17.6562 204.75 16.6719C203.703 15.6719 202.102 15.1719 199.945 15.1719C197.602 15.1719 195.844 16.0156 194.672 17.7031C193.516 19.375 192.922 21.9766 192.891 25.5078V28.0859C192.891 31.7734 193.445 34.4688 194.555 36.1719C195.68 37.875 197.445 38.7266 199.852 38.7266C202.023 38.7266 203.641 38.2344 204.703 37.25C205.781 36.25 206.398 34.7109 206.555 32.6328H213.586ZM240.844 30.3125L237.188 34.25V44H230.156V9.875H237.188V25.3438L240.281 21.1016L248.977 9.875H257.625L245.508 25.0391L257.977 44H249.609L240.844 30.3125ZM268.102 44H261.07V9.875H268.102V44ZM295.172 29.2109H281.672V38.3516H297.516V44H274.641V9.875H297.469V15.5703H281.672V23.7031H295.172V29.2109ZM327.797 15.5703H317.344V44H310.312V15.5703H300V9.875H327.797V15.5703Z" fill="#676C72"/>
</svg>
