<svg xmlns="http://www.w3.org/2000/svg" width="355" height="58.062" viewBox="0 0 355 58.062">
  <g id="Group_373" data-name="Group 373" transform="translate(1617 -14120)">
    <g id="Layer_2" data-name="Layer 2" transform="translate(-1616.997 14119.996)">
      <g id="Layer_1" data-name="Layer 1" transform="translate(-0.003 0.004)">
        <path id="Path_1761" data-name="Path 1761" d="M62.2,29.148,81.691,17.9A9.588,9.588,0,0,0,72.1,1.29L38.43,20.731Z" transform="translate(-33.634 -0.004)" fill="#fff"/>
        <path id="Path_1762" data-name="Path 1762" d="M43.251,194.41a9.589,9.589,0,0,0,4.8-17.894L14.382,157.075a9.589,9.589,0,1,0-9.589,16.607l33.673,19.444a9.539,9.539,0,0,0,4.784,1.283Z" transform="translate(0.003 -136.348)" fill="#fff"/>
        <path id="Path_1763" data-name="Path 1763" d="M547.7,259.649a9.538,9.538,0,0,0,4.788-1.283l33.673-19.445-23.473-8.592L542.9,241.756a9.589,9.589,0,0,0,4.8,17.894Z" transform="translate(-470.955 -201.588)" fill="#fff"/>
        <path id="Path_1764" data-name="Path 1764" d="M581.361,38.625a9.59,9.59,0,0,0,4.8-17.894L552.493,1.29A9.588,9.588,0,0,0,542.905,17.9l33.672,19.441A9.539,9.539,0,0,0,581.361,38.625Z" transform="translate(-470.959 -0.004)" fill="#fff"/>
      </g>
    </g>
    <text id="DSC_KIET" data-name="DSC KIET" transform="translate(-1477 14166)" fill="#fff" font-size="48" font-family="ProductSans-Black, Product Sans Black" font-weight="800"><tspan x="0" y="0">DSC KIET</tspan></text>
  </g>
</svg>
