<svg width="329" height="56" viewBox="0 0 329 56" fill="none" xmlns="http://www.w3.org/2000/svg">
<path d="M42.2129 37.2832L12.634 20.206C10.6995 19.0891 8.40048 18.7864 6.24277 19.3646C4.08505 19.9427 2.24538 21.3543 1.12846 23.2889C0.011535 25.2234 -0.291139 27.5224 0.287008 29.6801C0.865154 31.8379 2.27677 33.6775 4.21131 34.7944L33.7903 51.8716C34.7482 52.4246 35.8056 52.7836 36.9022 52.9279C37.9988 53.0723 39.1131 52.9993 40.1815 52.713C41.2499 52.4267 42.2514 51.9328 43.129 51.2595C44.0065 50.5862 44.7428 49.7466 45.2958 48.7887C45.8488 47.8308 46.2078 46.7734 46.3521 45.6767C46.4965 44.5801 46.4235 43.4658 46.1372 42.3974C45.8509 41.3291 45.357 40.3275 44.6837 39.45C44.0104 38.5725 43.1708 37.8362 42.2129 37.2832Z" fill="#AEB1B5"/>
<path d="M101.199 20.206L71.6203 3.12842C70.6624 2.57538 69.6049 2.21643 68.5083 2.07206C67.4117 1.92769 66.2974 2.00072 65.229 2.28699C64.1606 2.57327 63.1591 3.06717 62.2816 3.74051C61.4041 4.41384 60.6678 5.25342 60.1147 6.21131C59.5617 7.1692 59.2028 8.22664 59.0584 9.32325C58.914 10.4199 58.987 11.5342 59.2733 12.6026C59.5596 13.6709 60.0535 14.6725 60.7268 15.55C61.4002 16.4275 62.2397 17.1638 63.1976 17.7168L92.7762 34.7944C93.7341 35.3475 94.7916 35.7064 95.8882 35.8508C96.9848 35.9951 98.0991 35.9221 99.1675 35.6358C100.236 35.3496 101.237 34.8557 102.115 34.1823C102.992 33.509 103.729 32.6694 104.282 31.7115C104.835 30.7536 105.194 29.6962 105.338 28.5996C105.482 27.503 105.409 26.3887 105.123 25.3203C104.837 24.2519 104.343 23.2503 103.67 22.3728C102.996 21.4953 102.157 20.759 101.199 20.206Z" fill="#AEB1B5"/>
<path d="M91.605 36.8232L77.7999 28.8526L63.1977 37.2832C61.2631 38.4001 59.8515 40.2398 59.2733 42.3975C58.6952 44.5552 58.9979 46.8542 60.1148 48.7887C61.2317 50.7232 63.0713 52.1349 65.229 52.713C67.3867 53.2912 69.6857 52.9885 71.6203 51.8716L95.3969 38.1443C94.0614 37.9451 92.7752 37.497 91.605 36.8232Z" fill="#AEB1B5"/>
<path d="M13.8052 18.1774L27.6104 26.1477L42.2128 17.7168C44.1474 16.5999 45.559 14.7603 46.1372 12.6026C46.7153 10.4449 46.4127 8.14588 45.2957 6.21133C44.1788 4.27679 42.3392 2.86517 40.1815 2.28702C38.0238 1.70886 35.7248 2.01153 33.7902 3.12844L10.0139 16.8559C11.3493 17.055 12.6354 17.5033 13.8052 18.1774Z" fill="#AEB1B5"/>
<path d="M125.68 44V9.875H136.18C139.18 9.875 141.86 10.5547 144.219 11.9141C146.594 13.2578 148.446 15.1797 149.774 17.6797C151.102 20.1641 151.766 22.9922 151.766 26.1641V27.7344C151.766 30.9062 151.11 33.7266 149.797 36.1953C148.5 38.6641 146.665 40.5781 144.29 41.9375C141.915 43.2969 139.235 43.9844 136.25 44H125.68ZM132.711 15.5703V38.3516H136.11C138.86 38.3516 140.961 37.4531 142.415 35.6562C143.868 33.8594 144.61 31.2891 144.641 27.9453V26.1406C144.641 22.6719 143.922 20.0469 142.485 18.2656C141.047 16.4688 138.946 15.5703 136.18 15.5703H132.711ZM174.594 35.0469C174.594 33.7188 174.125 32.7031 173.188 32C172.25 31.2812 170.563 30.5312 168.125 29.75C165.688 28.9531 163.758 28.1719 162.336 27.4062C158.461 25.3125 156.524 22.4922 156.524 18.9453C156.524 17.1016 157.04 15.4609 158.071 14.0234C159.118 12.5703 160.61 11.4375 162.547 10.625C164.5 9.8125 166.688 9.40625 169.11 9.40625C171.547 9.40625 173.719 9.85156 175.625 10.7422C177.532 11.6172 179.008 12.8594 180.055 14.4688C181.118 16.0781 181.649 17.9062 181.649 19.9531H174.618C174.618 18.3906 174.125 17.1797 173.141 16.3203C172.157 15.4453 170.774 15.0078 168.993 15.0078C167.274 15.0078 165.938 15.375 164.985 16.1094C164.032 16.8281 163.555 17.7812 163.555 18.9688C163.555 20.0781 164.11 21.0078 165.219 21.7578C166.344 22.5078 167.993 23.2109 170.165 23.8672C174.165 25.0703 177.079 26.5625 178.907 28.3438C180.735 30.125 181.649 32.3438 181.649 35C181.649 37.9531 180.532 40.2734 178.297 41.9609C176.063 43.6328 173.055 44.4688 169.274 44.4688C166.649 44.4688 164.258 43.9922 162.102 43.0391C159.946 42.0703 158.297 40.75 157.157 39.0781C156.032 37.4062 155.469 35.4688 155.469 33.2656H162.524C162.524 37.0312 164.774 38.9141 169.274 38.9141C170.946 38.9141 172.25 38.5781 173.188 37.9062C174.125 37.2188 174.594 36.2656 174.594 35.0469ZM213.219 32.6328C212.954 36.3047 211.594 39.1953 209.141 41.3047C206.704 43.4141 203.485 44.4688 199.485 44.4688C195.11 44.4688 191.665 43 189.149 40.0625C186.649 37.1094 185.399 33.0625 185.399 27.9219V25.8359C185.399 22.5547 185.977 19.6641 187.133 17.1641C188.29 14.6641 189.938 12.75 192.079 11.4219C194.235 10.0781 196.735 9.40625 199.579 9.40625C203.516 9.40625 206.688 10.4609 209.094 12.5703C211.5 14.6797 212.891 17.6406 213.266 21.4531H206.235C206.063 19.25 205.446 17.6562 204.383 16.6719C203.336 15.6719 201.735 15.1719 199.579 15.1719C197.235 15.1719 195.477 16.0156 194.305 17.7031C193.149 19.375 192.555 21.9766 192.524 25.5078V28.0859C192.524 31.7734 193.079 34.4688 194.188 36.1719C195.313 37.875 197.079 38.7266 199.485 38.7266C201.657 38.7266 203.274 38.2344 204.336 37.25C205.415 36.25 206.032 34.7109 206.188 32.6328H213.219ZM240.477 30.3125L236.821 34.25V44H229.79V9.875H236.821V25.3438L239.915 21.1016L248.61 9.875H257.258L245.141 25.0391L257.61 44H249.243L240.477 30.3125ZM267.735 44H260.704V9.875H267.735V44ZM294.805 29.2109H281.305V38.3516H297.149V44H274.274V9.875H297.102V15.5703H281.305V23.7031H294.805V29.2109ZM327.43 15.5703H316.977V44H309.946V15.5703H299.633V9.875H327.43V15.5703Z" fill="#AEB1B5"/>
</svg>
