<svg width="361" height="201" viewBox="0 0 361 201" fill="none" xmlns="http://www.w3.org/2000/svg">
<g filter="url(#filter0_ii)">
<path d="M360.301 103.203V103.314C360.306 111.058 358.477 118.689 354.967 125.569C351.457 132.449 346.368 138.376 340.129 142.854L270.197 192.811C263.483 197.652 255.442 200.248 247.198 200.237C246.519 200.237 245.848 200.237 245.177 200.185C236.96 199.764 229.076 196.77 222.613 191.616C216.149 186.462 211.427 179.403 209.097 171.415C206.767 163.427 206.944 154.903 209.605 147.021C212.266 139.139 217.28 132.289 223.952 127.416C224.292 127.158 224.641 126.909 224.997 126.668L236.034 118.795L258.821 102.523L242.291 90.5418L228.172 80.3303L227.637 79.9435C224.786 77.7858 222.897 74.5696 222.388 71.0023C221.878 67.435 222.79 63.8089 224.92 60.9217C227.052 58.0345 230.228 56.1227 233.751 55.6069C237.275 55.091 240.857 56.0134 243.708 58.1711L262.904 72.0872L282.015 85.9346L285.021 88.1093L290.327 91.9514L291.524 92.811L291.626 92.8969C293.018 94.0632 294.139 95.5261 294.907 97.1813C295.677 98.8365 296.076 100.643 296.076 102.472C296.076 104.301 295.677 106.108 294.907 107.763C294.139 109.418 293.018 110.881 291.626 112.047L290.081 113.148L281.744 119.156L270.639 127.081L270.316 127.313L240.601 148.535C239.94 148.921 239.315 149.367 238.733 149.867C236.209 152.019 234.576 155.053 234.16 158.368C233.745 161.683 234.577 165.034 236.491 167.756C238.406 170.477 241.262 172.369 244.492 173.055C247.722 173.742 251.089 173.172 253.922 171.459C254.522 171.103 255.09 170.695 255.62 170.239L285.411 148.965L289.597 145.974L325.127 120.591L325.263 120.497C325.645 120.247 326.018 119.981 326.375 119.706C328.781 117.924 330.761 115.619 332.17 112.959C333.578 110.3 334.38 107.354 334.516 104.34C334.651 101.325 334.117 98.3183 332.951 95.5405C331.787 92.7628 330.021 90.285 327.784 88.2898C326.62 87.2263 325.341 86.298 323.973 85.522L292.186 62.4861L289.64 60.6295L252.878 33.9834C252.41 33.6224 251.926 33.27 251.434 32.9348L251.375 32.8918C247.357 30.1541 242.773 28.3827 237.975 27.7133C233.177 27.0438 228.291 27.4938 223.691 29.0291C219.091 30.5643 214.9 33.144 211.435 36.5711C207.971 39.9981 205.327 44.1817 203.704 48.8021C203.209 50.2041 202.815 51.6404 202.523 53.0998L202.261 54.5954C202.261 54.5954 202.261 54.5954 202.261 54.647L195.342 93.6963L193.643 102.773L184.763 150.375L184.169 153.538C183.489 156.745 182.54 159.888 181.333 162.933C176.983 173.937 169.475 183.369 159.78 190.012C150.084 196.655 138.644 200.205 126.938 200.203C125.078 200.203 123.236 200.117 121.427 199.936C111.861 199.046 102.663 195.765 94.6588 190.387L91.2203 187.894L21.8063 137.636L18.9368 135.547C13.1484 131.033 8.45904 125.236 5.22857 118.601C1.9981 111.965 0.312527 104.669 0.301279 97.272V97.1603C0.296467 89.417 2.12572 81.7855 5.63562 74.9058C9.14552 68.0261 14.2337 62.0988 20.4735 57.621L90.4052 7.66403C97.1201 2.8226 105.161 0.226141 113.404 0.237525C114.084 0.237525 114.754 0.237525 115.425 0.289098C123.642 0.71049 131.527 3.70491 137.99 8.85867C144.453 14.0124 149.176 21.0711 151.506 29.0596C153.836 37.048 153.658 45.5719 150.997 53.4536C148.336 61.3353 143.322 68.1857 136.65 73.0585C136.31 73.3164 135.963 73.5657 135.606 73.8063L124.568 81.6798L101.791 97.9511L118.32 109.933L132.431 120.144C132.606 120.265 132.784 120.394 132.965 120.531C134.377 121.599 135.568 122.939 136.468 124.473C137.369 126.007 137.963 127.706 138.215 129.472C138.468 131.239 138.374 133.038 137.939 134.768C137.505 136.497 136.737 138.123 135.682 139.553C134.627 140.982 133.304 142.188 131.789 143.1C130.273 144.011 128.595 144.612 126.851 144.868C125.106 145.123 123.329 145.028 121.62 144.588C119.912 144.148 118.306 143.372 116.894 142.303L97.6982 128.387L78.5872 114.54L75.5818 112.408L70.2756 108.566L69.0785 107.707L68.9766 107.621C67.5847 106.454 66.4641 104.991 65.695 103.336C64.9258 101.681 64.5271 99.8744 64.5271 98.0456C64.5271 96.2164 64.9258 94.4098 65.695 92.7546C66.4641 91.0994 67.5847 89.6365 68.9766 88.4703L70.5218 87.37L78.8335 81.3188L89.9383 73.3938L90.2609 73.1617L119.975 51.9394C120.637 51.5538 121.262 51.1079 121.843 50.6071C124.315 48.4425 125.899 45.4234 126.289 42.1392C126.679 38.855 125.846 35.5416 123.952 32.846C122.059 30.1503 119.241 28.266 116.048 27.5608C112.857 26.8556 109.519 27.3803 106.689 29.0324C106.629 29.0754 106.561 29.1012 106.511 29.1442L106.664 29.0324C106.063 29.3888 105.495 29.7972 104.965 30.253L105.135 30.1326L104.991 30.253L75.1997 51.5096L71.0142 54.5009L35.4837 79.8834L35.3479 79.9779C34.9658 80.2272 34.5923 80.4936 34.2356 80.7687C31.83 82.5505 29.8498 84.8561 28.441 87.5155C27.0323 90.1749 26.2307 93.1204 26.0955 96.1351C25.9602 99.1497 26.4947 102.156 27.6597 104.934C28.8245 107.712 30.5901 110.19 32.8263 112.185L32.9452 112.288L32.8009 112.185C33.115 112.477 33.4376 112.752 33.7772 113.044C34.6644 113.775 35.6133 114.425 36.6129 114.987L36.4855 114.892L36.6384 114.987L68.4248 138.023L70.9717 139.88L107.734 166.526C108.2 166.887 108.684 167.239 109.177 167.574L109.236 167.617C113.564 170.553 118.539 172.366 123.722 172.897C128.905 173.429 134.138 172.662 138.96 170.664C143.782 168.666 148.045 165.498 151.372 161.44C154.7 157.382 156.991 152.558 158.045 147.392L158.308 145.896C158.308 145.896 158.308 145.896 158.308 145.845L164.854 108.927L166.943 97.7534L175.721 50.6587L176.511 46.4555C177.182 43.4265 178.093 40.4572 179.236 37.5763C183.587 26.5567 191.098 17.1097 200.804 10.4543C210.508 3.7988 221.96 0.240177 233.682 0.237525C235.541 0.237525 237.383 0.32348 239.192 0.503985C248.758 1.39411 257.956 4.6755 265.961 10.0536L269.357 12.5463L338.797 62.8385L341.666 64.9272C347.454 69.4416 352.144 75.2389 355.374 81.874C358.604 88.5091 360.29 95.8055 360.301 103.203Z" fill="white"/>
</g>
<defs>
<filter id="filter0_ii" x="-3.69873" y="-3.76251" width="368" height="208" filterUnits="userSpaceOnUse" color-interpolation-filters="sRGB">
<feFlood flood-opacity="0" result="BackgroundImageFix"/>
<feBlend mode="normal" in="SourceGraphic" in2="BackgroundImageFix" result="shape"/>
<feColorMatrix in="SourceAlpha" type="matrix" values="0 0 0 0 0 0 0 0 0 0 0 0 0 0 0 0 0 0 127 0" result="hardAlpha"/>
<feOffset dx="4" dy="-4"/>
<feGaussianBlur stdDeviation="2"/>
<feComposite in2="hardAlpha" operator="arithmetic" k2="-1" k3="1"/>
<feColorMatrix type="matrix" values="0 0 0 0 0 0 0 0 0 0 0 0 0 0 0 0 0 0 0.2 0"/>
<feBlend mode="normal" in2="shape" result="effect1_innerShadow"/>
<feColorMatrix in="SourceAlpha" type="matrix" values="0 0 0 0 0 0 0 0 0 0 0 0 0 0 0 0 0 0 127 0" result="hardAlpha"/>
<feOffset dx="-4" dy="4"/>
<feGaussianBlur stdDeviation="2"/>
<feComposite in2="hardAlpha" operator="arithmetic" k2="-1" k3="1"/>
<feColorMatrix type="matrix" values="0 0 0 0 1 0 0 0 0 1 0 0 0 0 1 0 0 0 0.2 0"/>
<feBlend mode="normal" in2="effect1_innerShadow" result="effect2_innerShadow"/>
</filter>
</defs>
</svg>
